<?xml version="1.0" standalone="no"?>
<!DOCTYPE svg PUBLIC "-//W3C//DTD SVG 20010904//EN"
 "http://www.w3.org/TR/2001/REC-SVG-20010904/DTD/svg10.dtd">
<svg version="1.0" xmlns="http://www.w3.org/2000/svg"
 width="204.000000pt" height="192.000000pt" viewBox="0 0 204.000000 192.000000"
 preserveAspectRatio="xMidYMid meet">
<metadata>
Created by potrace 1.16, written by Peter Selinger 2001-2019
</metadata>
<g transform="translate(0.000000,192.000000) scale(0.100000,-0.100000)"
fill="#000000" stroke="none">
<path d="M50 1853 c-8 -4 -22 -15 -31 -27 -15 -18 -15 -23 -2 -43 15 -22 21
-23 144 -23 155 0 156 0 187 -121 40 -152 123 -462 148 -554 74 -275 95 -359
90 -371 -3 -8 -16 -14 -28 -14 -38 0 -94 -46 -118 -95 -27 -57 -24 -141 6
-182 39 -52 68 -66 151 -71 43 -3 81 -9 84 -14 4 -6 2 -28 -4 -50 -15 -59 5
-137 46 -176 94 -91 239 -79 312 26 28 40 30 51 30 128 l0 84 185 -2 185 -3
-3 -71 c-6 -107 26 -170 103 -205 123 -57 271 24 291 159 4 25 2 60 -4 80 -9
30 -8 39 8 60 23 28 25 53 8 70 -9 9 -161 12 -624 12 -365 0 -623 4 -638 10
-34 13 -60 54 -52 84 15 59 -17 56 644 56 572 0 609 1 642 19 19 10 43 29 53
43 17 23 54 167 147 575 27 120 30 147 21 175 -24 69 22 65 -786 72 -566 4
-732 9 -741 18 -7 7 -28 74 -49 148 -42 154 -53 176 -100 196 -35 14 -272 19
-305 7z m758 -485 c10 -14 42 -258 35 -270 -7 -14 -208 -9 -226 5 -12 9 -87
242 -87 271 0 3 60 6 134 6 95 0 136 -4 144 -12z m387 -10 c3 -13 4 -77 3
-143 l-3 -120 -105 -3 c-74 -2 -110 1 -121 10 -11 9 -21 51 -33 133 -9 66 -16
126 -16 133 0 9 34 12 135 12 131 0 135 -1 140 -22z m379 5 c8 -20 -24 -243
-37 -260 -12 -16 -173 -18 -211 -3 l-26 10 0 135 0 135 134 0 c116 0 135 -2
140 -17z m353 2 c7 -20 -42 -242 -58 -261 -15 -18 -178 -20 -202 -1 -15 11
-15 21 -1 132 9 66 18 126 20 133 2 9 35 12 119 12 95 0 117 -3 122 -15z
m-1069 -387 c8 -11 31 -169 36 -252 1 -17 -6 -19 -78 -17 -44 1 -87 6 -96 11
-14 8 -81 221 -80 258 0 9 28 12 104 12 71 0 107 -4 114 -12z m336 -4 c3 -9 6
-71 6 -139 l0 -123 -77 -4 c-113 -6 -116 -3 -132 128 -7 60 -15 119 -18 132
-5 22 -4 22 105 22 91 0 111 -3 116 -16z m329 1 c8 -21 -21 -247 -33 -259 -10
-10 -166 -10 -182 0 -5 3 -8 66 -8 140 l0 134 109 0 c87 0 110 -3 114 -15z
m312 4 c4 -6 -3 -61 -16 -122 -31 -147 -42 -161 -137 -152 -37 4 -71 10 -75
14 -4 4 0 67 9 139 l18 132 97 0 c59 0 100 -4 104 -11z m-925 -644 c36 -19 50
-43 50 -89 0 -49 -8 -65 -42 -82 -62 -32 -138 20 -138 96 0 30 6 43 31 64 35
30 58 32 99 11z m775 -17 c20 -19 38 -47 41 -65 6 -28 1 -38 -29 -68 -19 -19
-45 -35 -57 -35 -51 0 -110 61 -110 113 0 14 13 39 29 56 40 42 80 42 126 -1z"/>
</g>
</svg>
