<?xml version="1.0" standalone="no"?>
<!DOCTYPE svg PUBLIC "-//W3C//DTD SVG 20010904//EN"
 "http://www.w3.org/TR/2001/REC-SVG-20010904/DTD/svg10.dtd">
<svg version="1.0" xmlns="http://www.w3.org/2000/svg"
 width="512.000000pt" height="512.000000pt" viewBox="0 0 512.000000 512.000000"
 preserveAspectRatio="xMidYMid meet">

<g transform="translate(0.000000,512.000000) scale(0.100000,-0.100000)"
fill="#000000" stroke="none">
<path d="M2459 5105 c-25 -8 -63 -27 -86 -42 -22 -16 -546 -456 -1164 -980
-766 -649 -1133 -965 -1152 -995 -113 -174 -48 -402 141 -495 49 -24 69 -28
145 -28 l87 0 0 -1186 0 -1185 26 -52 c14 -29 42 -65 62 -82 79 -65 -85 -60
2247 -58 l2120 3 50 27 c68 35 122 92 154 158 22 46 26 69 26 140 0 73 -4 93
-28 142 -17 34 -49 76 -79 103 -35 31 -59 64 -73 100 -41 101 -111 162 -227
199 -17 5 -18 54 -18 848 l0 843 88 0 c75 0 95 4 143 28 67 32 142 109 172
175 30 66 30 198 0 264 -36 78 -61 104 -322 323 l-250 210 -1 550 0 550 -24
50 c-28 60 -66 97 -126 124 -41 19 -65 21 -273 21 -245 0 -265 -3 -334 -56
-18 -13 -45 -46 -60 -72 -27 -46 -28 -51 -33 -244 l-5 -197 -455 385 c-286
242 -474 394 -508 411 -66 32 -174 40 -243 18z m1084 -1605 l976 -825 0 -857
1 -857 -47 27 c-67 37 -194 43 -275 12 -73 -27 -150 -96 -183 -165 -22 -44
-34 -56 -63 -66 -21 -7 -61 -37 -93 -69 -30 -31 -79 -70 -108 -86 -123 -66
-188 -208 -158 -345 8 -35 17 -72 22 -81 7 -17 -6 -18 -184 -18 l-191 0 0
1013 0 1013 -26 53 c-31 61 -96 114 -161 130 -26 7 -209 11 -493 11 -284 0
-467 -4 -493 -11 -65 -16 -130 -69 -161 -130 l-26 -53 0 -1013 0 -1013 -605 0
c-640 0 -652 1 -669 45 -3 9 -6 566 -6 1238 l1 1222 977 827 c537 455 980 826
983 825 4 -1 446 -373 982 -827z m749 -2685 c11 -24 14 -25 74 -19 69 7 61 12
144 -83 10 -13 30 -23 43 -23 32 0 45 -17 59 -78 8 -34 19 -54 33 -60 74 -34
135 -130 135 -216 0 -60 -17 -119 -42 -146 -19 -21 -25 -21 -448 -18 -417 3
-429 4 -457 24 -67 50 -90 125 -59 197 18 43 44 65 102 85 39 14 55 27 79 65
31 48 75 77 117 77 32 0 66 37 80 86 13 50 43 91 82 115 40 24 44 24 58 -6z"/>
<path d="M862 2369 c-28 -14 -51 -36 -67 -64 l-25 -42 0 -514 c0 -513 0 -514
23 -554 14 -26 37 -48 67 -63 43 -21 52 -22 377 -22 259 0 341 3 366 14 42 17
83 66 97 114 16 60 13 987 -4 1035 -18 50 -42 76 -91 98 -36 17 -71 19 -370
19 -316 0 -332 -1 -373 -21z m498 -624 l0 -465 -210 0 -210 0 0 465 0 465 210
0 210 0 0 -465z"/>
<path d="M3515 2371 c-49 -22 -73 -48 -91 -98 -17 -48 -20 -975 -4 -1035 14
-48 55 -97 97 -114 25 -11 107 -14 366 -14 325 0 334 1 377 23 30 14 53 36 67
62 23 40 23 41 23 554 l0 514 -25 43 c-16 28 -39 49 -68 63 -41 20 -58 21
-373 21 -298 0 -333 -2 -369 -19z m495 -626 l0 -465 -210 0 -210 0 0 465 0
465 210 0 210 0 0 -465z"/>
</g>
</svg>
