<?xml version="1.0" standalone="no"?>
<!DOCTYPE svg PUBLIC "-//W3C//DTD SVG 20010904//EN"
 "http://www.w3.org/TR/2001/REC-SVG-20010904/DTD/svg10.dtd">
<svg version="1.0" xmlns="http://www.w3.org/2000/svg"
 width="512.000000pt" height="512.000000pt" viewBox="0 0 512.000000 512.000000"
 preserveAspectRatio="xMidYMid meet">

<g transform="translate(0.000000,512.000000) scale(0.100000,-0.100000)"
fill="#000000" stroke="none">
<path d="M535 4716 c-39 -17 -79 -55 -102 -97 -17 -33 -18 -89 -18 -1349 l0
-1315 24 -42 c14 -24 42 -55 64 -70 l40 -28 819 -3 818 -2 0 -23 c0 -33 -61
-176 -98 -230 -18 -26 -55 -70 -83 -97 l-50 -50 -814 0 c-807 0 -814 0 -825
-20 -6 -11 -74 -187 -150 -390 l-140 -370 0 -108 c0 -71 4 -112 12 -120 17
-17 3939 -17 3956 0 8 8 12 51 12 130 l0 117 -151 368 c-83 202 -155 374 -161
381 -8 9 -97 12 -381 12 l-370 0 -33 25 c-69 52 -147 173 -185 284 -35 101
-131 90 800 93 l819 3 38 31 c55 44 73 72 84 135 7 37 10 489 8 1325 -3 1413
2 1307 -73 1372 -20 18 -48 38 -62 43 -15 5 -761 9 -1896 9 -1535 -1 -1877 -3
-1902 -14z m3785 -81 c65 -33 60 71 60 -1365 0 -1167 -2 -1308 -16 -1328 -38
-55 84 -52 -1924 -52 -2008 0 -1886 -3 -1924 52 -14 20 -16 161 -16 1326 0
902 3 1309 11 1323 5 11 25 29 42 39 31 20 68 20 1885 20 1624 0 1857 -2 1882
-15z m-1687 -2924 c30 -93 80 -188 135 -252 l34 -39 -361 0 -360 0 48 64 c66
87 96 153 137 304 3 9 45 12 171 12 l168 0 28 -89z m-2107 -448 l-23 -68 -93
-3 c-85 -3 -92 -1 -85 15 4 10 16 42 27 71 l21 52 88 0 88 0 -23 -67z m245 5
l-18 -63 -78 -3 c-71 -3 -77 -1 -72 15 2 10 11 39 18 66 l13 47 77 0 77 0 -17
-62z m249 47 c0 -7 -5 -37 -11 -65 l-11 -50 -80 0 c-72 0 -79 2 -73 18 3 9 11
38 17 65 l11 47 74 0 c57 0 73 -3 73 -15z m236 -31 c-3 -26 -6 -55 -6 -65 0
-17 -9 -19 -80 -19 -44 0 -80 4 -80 8 0 5 5 34 11 65 l12 57 75 0 75 0 -7 -46z
m240 0 c-3 -26 -6 -55 -6 -65 0 -17 -9 -19 -81 -19 l-81 0 6 28 c2 15 7 44 11
65 l6 37 76 0 76 0 -7 -46z m240 0 c-3 -26 -6 -55 -6 -65 0 -17 -9 -19 -78
-19 l-78 0 4 43 c6 90 3 87 89 87 l76 0 -7 -46z m234 -19 l0 -65 -75 0 -75 0
0 65 0 65 75 0 75 0 0 -65z m240 23 c0 -24 3 -53 6 -65 6 -22 4 -23 -75 -23
l-81 0 0 65 0 65 75 0 75 0 0 -42z m235 -5 c4 -27 9 -56 12 -65 4 -16 -4 -18
-76 -18 l-81 0 0 34 c0 18 -3 48 -6 65 l-6 31 75 0 76 0 6 -47z m241 -20 l11
-63 -77 0 -77 0 -7 46 c-12 89 -15 85 66 82 l73 -3 11 -62z m233 10 c6 -31 11
-60 11 -65 0 -4 -33 -8 -74 -8 l-74 0 -6 38 c-4 20 -9 49 -12 65 l-6 27 75 0
74 0 12 -57z m235 -1 c9 -32 16 -61 16 -65 0 -4 -33 -7 -73 -7 l-73 0 -16 65
-15 65 72 0 72 0 17 -58z m230 6 c10 -29 21 -59 23 -65 4 -10 -14 -13 -69 -13
l-74 0 -17 53 c-9 30 -17 59 -17 65 0 8 23 12 68 12 l67 0 19 -52z m265 10
c40 -94 44 -88 -57 -88 l-89 0 -22 59 c-11 32 -21 61 -21 65 0 3 38 6 85 6
l86 0 18 -42z m-430 -237 c12 -38 21 -72 21 -75 0 -3 -36 -6 -80 -6 l-79 0
-11 38 c-5 20 -13 54 -16 75 l-7 37 76 0 75 0 21 -69z m510 42 c7 -16 22 -49
32 -75 l19 -48 -99 0 -99 0 -25 75 -26 75 93 0 c91 0 93 0 105 -27z m-3273
-55 l-23 -73 -101 -3 -101 -3 23 58 c13 32 26 66 29 76 5 14 20 17 101 17 l94
0 -22 -72z m270 55 c-3 -10 -12 -44 -21 -75 l-16 -58 -85 0 c-46 0 -84 2 -84
3 0 3 33 103 45 135 3 8 30 12 85 12 73 0 81 -2 76 -17z m254 10 c0 -7 -11
-57 -25 -120 -5 -22 -10 -23 -91 -23 -77 0 -85 2 -80 18 3 9 10 37 16 62 6 25
13 51 15 58 5 13 165 18 165 5z m246 -25 c-3 -18 -8 -52 -12 -75 l-7 -43 -83
0 c-47 0 -84 4 -84 10 0 11 20 110 25 128 3 8 29 12 86 12 l81 0 -6 -32z m250
-14 c-3 -26 -6 -60 -6 -75 l0 -29 -86 0 -86 0 6 58 c12 97 7 92 98 92 l81 0
-7 -46z m254 9 c0 -21 -3 -55 -6 -75 l-7 -38 -84 0 c-84 0 -85 0 -79 23 3 12
6 46 6 75 l0 52 85 0 85 0 0 -37z m250 -33 l0 -70 -47 0 c-27 0 -65 -3 -85 -6
l-38 -7 0 77 0 76 85 0 85 0 0 -70z m244 48 c3 -13 6 -44 6 -69 l0 -46 -77 -6
c-42 -3 -81 -4 -85 -1 -4 3 -8 36 -8 75 l0 69 79 0 c73 0 79 -2 85 -22z m247
5 c0 -10 4 -42 8 -70 l7 -53 -81 0 -82 0 -7 38 c-3 20 -6 52 -6 70 l0 32 80 0
c69 0 80 -2 81 -17z m250 -23 c4 -19 9 -50 13 -67 l6 -33 -84 0 -83 0 -7 46
c-13 99 -16 95 71 92 l77 -3 7 -35z m253 -25 c9 -35 16 -67 16 -70 0 -3 -38
-5 -84 -5 l-84 0 -7 57 c-4 31 -9 62 -12 70 -4 10 12 13 75 13 l80 0 16 -65z
m490 8 c10 -32 21 -64 23 -70 4 -10 -15 -13 -76 -13 l-80 0 -17 58 c-9 31 -19
63 -21 70 -4 9 15 12 74 12 l79 0 18 -57z m388 -262 c21 -51 38 -94 36 -96 -2
-1 -49 -5 -104 -9 l-101 -6 -35 98 -35 97 71 6 c134 11 124 16 168 -90z
m-3452 83 c0 -4 -14 -51 -30 -105 l-31 -99 -108 0 -109 0 37 98 37 97 74 6
c124 9 130 9 130 3z m266 -11 c-3 -10 -15 -57 -27 -105 l-21 -88 -95 0 c-72 0
-94 3 -90 13 2 6 16 51 31 99 l26 87 63 4 c34 2 75 4 90 5 23 2 27 -1 23 -15z
m264 3 c0 -8 -7 -45 -15 -83 -9 -37 -18 -78 -20 -90 -5 -22 -10 -23 -99 -23
l-93 0 24 93 c13 50 26 98 28 105 7 19 175 17 175 -2z m252 -91 l-15 -105 -94
0 c-51 0 -93 2 -93 4 0 2 9 48 20 101 11 53 20 99 20 101 0 2 40 4 88 4 l88 0
-14 -105z m274 58 c-3 -27 -8 -74 -11 -105 l-6 -58 -96 0 c-73 0 -94 3 -90 13
2 7 10 54 17 105 l13 92 89 0 90 0 -6 -47z m264 -7 c0 -29 -3 -73 -6 -98 l-6
-45 -86 -6 c-47 -4 -88 -4 -90 -2 -2 2 -1 49 3 104 l7 101 89 0 89 0 0 -54z
m260 -46 l0 -100 -44 0 c-24 0 -64 -3 -90 -6 l-46 -7 0 91 c0 50 3 97 6 106 5
13 23 16 90 16 l84 0 0 -100z m264 54 c3 -26 6 -71 6 -100 l0 -54 -90 0 -90 0
0 100 0 100 84 0 83 0 7 -46z m259 9 c3 -21 9 -66 13 -100 l7 -63 -90 0 -90 0
-7 53 c-3 28 -6 73 -6 100 l0 47 84 0 83 0 6 -37z m270 -56 c10 -51 17 -96 17
-100 0 -4 -40 -7 -89 -7 l-90 0 -6 48 c-4 26 -10 71 -14 100 l-8 52 87 0 87 0
16 -93z m259 13 c9 -41 20 -85 23 -97 5 -23 4 -23 -85 -23 -102 0 -89 -14
-114 123 l-14 78 86 -3 87 -3 17 -75z m247 43 c6 -21 17 -60 26 -88 23 -79 26
-76 -72 -73 l-88 3 -17 75 c-9 41 -20 85 -23 98 -5 22 -4 22 79 22 l85 0 10
-37z m277 -58 c18 -49 33 -93 33 -97 1 -5 -39 -8 -87 -8 l-89 0 -23 83 c-12
45 -25 90 -28 100 -4 16 3 18 79 15 l83 -3 32 -90z"/>
<path d="M662 4458 c-17 -17 -17 -2079 0 -2096 17 -17 3539 -17 3556 0 17 17
17 2079 0 2096 -17 17 -3539 17 -3556 0z m3488 -1048 l0 -980 -1710 0 -1710 0
0 980 0 980 1710 0 1710 0 0 -980z"/>
<path d="M1148 4159 c-17 -9 -18 -35 -18 -307 0 -219 3 -301 12 -310 17 -17
689 -17 706 0 9 9 12 91 12 310 0 284 -1 298 -19 308 -26 14 -670 13 -693 -1z"/>
<path d="M2092 4154 c-22 -15 -22 -17 -22 -308 0 -214 3 -295 12 -304 17 -17
699 -17 716 0 9 9 12 90 12 304 0 291 0 293 -22 308 -19 14 -70 16 -348 16
-278 0 -329 -2 -348 -16z m628 -309 l0 -235 -285 0 -285 0 0 235 0 235 285 0
285 0 0 -235z"/>
<path d="M3038 4159 c-17 -9 -18 -35 -18 -307 0 -219 3 -301 12 -310 17 -17
689 -17 706 0 9 9 12 91 12 310 0 284 -1 298 -19 308 -26 14 -670 13 -693 -1z
m632 -309 l0 -230 -285 0 -285 0 0 230 0 230 285 0 285 0 0 -230z"/>
<path d="M1260 3305 c-17 -21 -4 -61 22 -69 38 -10 545 -7 572 4 28 10 35 47
14 68 -9 9 -90 12 -304 12 -246 0 -293 -2 -304 -15z"/>
<path d="M1262 3128 c-16 -16 -15 -43 2 -57 10 -8 326 -10 1181 -9 1100 3
1168 4 1179 21 8 12 8 22 0 35 -11 16 -79 17 -1181 20 -901 1 -1172 -1 -1181
-10z"/>
<path d="M1260 2875 c-7 -8 -10 -25 -6 -39 9 -36 38 -39 347 -29 l274 8 3 23
c8 51 2 52 -313 52 -247 0 -294 -2 -305 -15z"/>
<path d="M1262 2698 c-16 -16 -15 -43 2 -57 10 -8 326 -10 1181 -9 1100 3
1168 4 1179 21 8 12 8 22 0 35 -11 16 -79 17 -1181 20 -901 1 -1172 -1 -1181
-10z"/>
<path d="M2385 2261 c-62 -26 -103 -108 -85 -171 13 -45 27 -63 70 -89 65 -39
141 -19 193 51 44 60 14 168 -57 202 -36 17 -88 20 -121 7z m80 -83 c46 -21
46 -85 0 -106 -32 -15 -71 -1 -80 28 -14 43 5 75 52 89 1 1 14 -4 28 -11z"/>
<path d="M4420 1264 c-147 -39 -270 -132 -323 -245 -49 -103 -55 -239 -17
-369 20 -70 -15 -65 468 -68 263 -1 449 1 464 7 20 7 32 27 54 88 24 65 29 94
29 169 0 84 -3 95 -38 166 -61 125 -178 214 -332 253 -75 19 -232 19 -305 -1z
m271 -78 c86 -19 159 -56 220 -113 l49 -45 -20 -28 c-28 -39 -116 -96 -185
-120 -125 -44 -308 -35 -417 21 -46 23 -138 106 -138 123 0 16 77 88 120 113
99 58 241 76 371 49z m-392 -361 c203 -102 473 -76 649 64 30 24 56 40 59 37
13 -12 5 -144 -11 -198 l-17 -58 -408 0 c-380 0 -409 1 -416 18 -11 27 -18
166 -11 206 l7 36 51 -41 c29 -22 72 -51 97 -64z"/>
</g>
</svg>
