<?xml version="1.0" standalone="no"?>
<!DOCTYPE svg PUBLIC "-//W3C//DTD SVG 20010904//EN"
 "http://www.w3.org/TR/2001/REC-SVG-20010904/DTD/svg10.dtd">
<svg version="1.0" xmlns="http://www.w3.org/2000/svg"
 width="512.000000pt" height="512.000000pt" viewBox="0 0 512.000000 512.000000"
 preserveAspectRatio="xMidYMid meet">

<g transform="translate(0.000000,512.000000) scale(0.100000,-0.100000)"
fill="#000000" stroke="none">
<path d="M2469 5014 c-64 -19 -141 -90 -168 -155 -27 -62 -30 -159 -6 -215
l16 -38 -188 -188 -188 -188 -765 0 c-833 0 -826 0 -931 -56 -61 -34 -142
-115 -179 -180 -63 -108 -60 -19 -60 -1825 0 -1062 4 -1665 10 -1700 22 -120
120 -253 229 -313 110 -60 -35 -56 2321 -56 2358 0 2210 -4 2322 57 62 34 140
112 178 178 62 108 60 59 60 1423 0 1223 0 1242 -20 1262 -45 45 -115 28 -131
-31 -4 -13 -7 -581 -8 -1261 -1 -1124 -3 -1241 -17 -1279 l-17 -41 -103 103
-104 104 0 1550 0 1550 104 104 103 103 17 -41 c13 -35 16 -84 16 -314 0 -281
7 -339 40 -357 32 -17 70 -11 95 15 l25 24 0 283 c0 313 -8 372 -60 462 -37
65 -118 146 -179 180 -105 56 -98 56 -931 56 l-765 0 -188 188 -188 188 16 38
c9 21 16 66 16 101 0 195 -183 328 -372 269z m5 -539 c63 -19 109 -19 176 1
l53 16 131 -131 131 -131 -405 0 -405 0 130 130 c71 72 132 130 135 130 3 0
27 -7 54 -15z m2294 -419 l44 -19 -103 -103 -104 -104 -2045 0 -2045 0 -104
104 -103 104 43 15 c24 9 58 18 74 20 17 2 991 4 2165 3 2072 -1 2136 -2 2178
-20z m-4368 -1399 l0 -1059 29 -29 c16 -16 37 -29 46 -29 13 0 15 -11 13 -72
-3 -66 -5 -73 -24 -76 -12 -2 -30 -12 -40 -24 -18 -19 -19 -46 -22 -391 l-3
-372 -100 -97 c-55 -54 -102 -98 -104 -98 -1 0 -10 18 -19 40 -14 37 -16 200
-16 1715 0 1530 1 1678 16 1716 l17 41 103 -103 104 -104 0 -1058z m4160 312
l0 -701 -92 9 c-142 12 -426 7 -588 -11 -160 -18 -352 -49 -625 -101 -300 -56
-400 -68 -560 -69 -180 -1 -224 8 -402 80 -503 205 -998 235 -1547 94 -83 -21
-159 -41 -168 -45 -17 -7 -18 31 -18 719 l0 726 2000 0 2000 0 0 -701z m-2830
-795 c261 -40 547 -143 834 -301 67 -36 243 -139 391 -228 443 -266 614 -352
850 -430 204 -67 468 -102 663 -87 l92 7 0 -237 0 -238 -1795 0 -1796 0 -39
82 c-65 135 -83 219 -83 388 -1 159 13 236 73 401 84 234 282 486 485 619 l80
52 75 -7 c41 -3 118 -13 170 -21z m2979 -1778 l103 -104 -48 -18 c-47 -18
-121 -19 -2204 -19 -2083 0 -2157 1 -2204 19 l-48 18 103 104 104 104 2045 0
2045 0 104 -104z"/>
<path d="M3394 3516 c-246 -80 -394 -324 -343 -568 46 -222 253 -388 482 -388
201 0 398 147 459 343 27 87 26 209 -3 294 -44 134 -157 253 -286 304 -72 28
-244 36 -309 15z m283 -176 c71 -35 115 -82 152 -160 37 -79 37 -191 -1 -272
-123 -263 -506 -250 -609 21 -29 78 -24 194 13 266 28 54 95 123 147 149 86
45 202 43 298 -4z"/>
</g>
</svg>
