<?xml version="1.0" standalone="no"?>
<!DOCTYPE svg PUBLIC "-//W3C//DTD SVG 20010904//EN"
 "http://www.w3.org/TR/2001/REC-SVG-20010904/DTD/svg10.dtd">
<svg version="1.0" xmlns="http://www.w3.org/2000/svg"
 width="270.000000pt" height="148.000000pt" viewBox="0 0 270.000000 148.000000"
 preserveAspectRatio="xMidYMid meet">

<g transform="translate(0.000000,148.000000) scale(0.100000,-0.100000)"
fill="#000000" stroke="none">
<path d="M842 1460 c10 -6 31 -7 55 -1 38 9 38 9 -17 10 -40 0 -50 -2 -38 -9z"/>
<path d="M665 1453 c-62 -8 -192 -35 -235 -48 -25 -8 -58 -18 -74 -23 -17 -4
-32 -14 -34 -21 -3 -8 6 -7 24 5 28 18 29 18 14 -1 -14 -17 -13 -18 3 -12 14
5 18 3 15 -11 -1 -9 0 -21 4 -27 9 -15 31 -365 23 -373 -4 -4 -19 -7 -33 -8
-15 0 -37 -6 -49 -12 -20 -11 -22 -10 -26 20 -3 29 -4 28 -5 -9 l-2 -41 -79
-27 c-88 -29 -126 -53 -134 -86 -7 -25 1 -19 17 13 7 13 20 23 29 23 10 0 22
7 27 15 8 12 10 10 11 -10 0 -21 2 -22 8 -7 13 36 31 -6 33 -79 2 -85 16 -133
18 -59 0 40 3 46 11 32 6 -10 8 -30 4 -45 -3 -14 -8 -42 -11 -62 -5 -40 -23
-80 -36 -80 -5 0 -6 4 -3 10 3 6 -1 7 -9 4 -9 -3 -16 -10 -16 -15 0 -19 -30
-8 -46 16 -19 30 -31 27 -15 -3 6 -12 19 -23 30 -27 14 -4 20 -19 25 -64 4
-33 13 -65 21 -71 9 -7 40 -13 70 -14 65 -1 62 9 39 -160 -9 -64 -13 -123 -10
-131 3 -8 16 -15 29 -15 22 0 25 9 58 148 l34 147 64 5 63 5 -7 -70 c-3 -38
-9 -80 -12 -92 -4 -20 -1 -23 25 -23 21 0 32 6 35 18 3 9 13 50 22 90 l17 72
753 0 753 0 12 -52 c29 -126 29 -128 55 -128 13 0 26 4 29 9 3 4 0 45 -8 90
l-13 81 41 1 c23 0 51 2 63 3 24 3 31 -19 73 -206 20 -91 23 -98 46 -98 14 0
27 6 30 14 3 7 -3 74 -13 147 l-19 134 64 7 c36 4 68 10 73 15 4 4 12 36 18
70 6 39 17 69 30 82 12 12 21 29 21 39 0 11 -7 6 -20 -15 -11 -18 -26 -33 -34
-33 -18 0 -48 47 -52 80 -1 14 -5 45 -8 68 -5 45 -16 70 -16 37 0 -10 -2 -16
-5 -13 -4 3 -3 18 1 33 4 17 9 22 14 15 4 -7 9 0 13 17 3 16 18 41 32 56 24
23 29 25 42 12 8 -8 19 -15 24 -15 6 0 7 -5 3 -12 -5 -7 -3 -8 5 -4 22 14 -15
42 -95 72 -61 24 -74 32 -74 51 0 12 11 101 25 197 27 196 26 212 -28 245
-153 94 -655 138 -953 82 l-120 -22 -123 21 c-132 22 -314 37 -251 20 19 -5
44 -7 55 -4 16 4 17 3 5 -5 -11 -8 -3 -11 35 -11 67 0 95 -9 88 -26 -3 -8 1
-14 11 -14 9 0 16 -8 16 -18 0 -10 5 -23 11 -29 7 -7 6 -12 -6 -17 -9 -3 -15
-1 -14 7 1 6 1 19 0 27 -1 13 -2 13 -11 0 -9 -13 -10 -13 -10 0 0 13 -1 13
-10 0 -6 -9 -10 -10 -10 -3 0 6 -8 10 -19 8 -14 -3 -18 1 -14 16 3 10 13 19
22 20 24 1 -18 18 -44 17 -16 0 -15 -2 5 -8 24 -8 24 -8 -7 -9 -17 -1 -33 3
-35 8 -1 4 -25 6 -53 2 -27 -3 -70 -3 -95 1 l-45 6 48 -1 c26 -1 47 0 47 3 0
3 19 4 43 3 35 -2 38 -1 16 6 -14 5 -77 5 -140 0 -152 -11 -147 -10 -119 -20
17 -6 1 -7 -47 -4 -68 5 -73 4 -73 -15 0 -11 -4 -20 -10 -20 -5 0 -10 7 -10
16 0 14 -8 16 -41 11 -22 -3 -49 -13 -60 -23 -18 -16 -18 -19 -4 -33 11 -11
18 -12 26 -4 11 11 39 7 39 -6 0 -8 -59 -6 -82 3 -20 9 -29 -33 -37 -194 l-7
-115 -8 112 c-11 151 6 253 43 253 13 0 13 2 2 9 -17 11 59 28 209 46 73 9 88
13 50 12 -30 0 -68 -2 -85 -4z m1263 -13 c-17 -10 -177 -27 -323 -34 -80 -4
-158 -27 -136 -40 6 -4 19 -2 30 4 11 5 36 10 56 10 28 0 38 -5 42 -20 5 -18
14 -20 84 -20 l79 0 0 30 c0 17 -5 30 -12 30 -6 0 -9 2 -7 5 3 2 18 0 35 -4
16 -5 21 -10 12 -10 -14 -1 -18 -10 -18 -36 0 -21 -5 -35 -12 -36 -69 -6 -151
-3 -156 7 -4 6 -29 14 -55 16 -35 4 -46 3 -38 -5 6 -6 10 -31 9 -56 l-1 -46
-6 45 c-5 37 -10 46 -29 48 -12 2 -20 7 -18 10 2 4 -7 13 -21 19 -23 11 -26 9
-43 -29 -20 -44 -36 -36 -25 13 12 52 33 64 146 82 143 23 147 24 294 25 89 1
125 -2 113 -8z m90 -5 c-10 -11 -48 -14 -48 -4 0 5 12 9 27 9 14 0 24 -2 21
-5z m45 -20 c4 -6 11 -4 17 5 7 12 12 12 22 2 6 -6 8 -12 3 -13 -6 0 -55 -2
-110 -4 -82 -2 -88 -1 -37 5 34 4 65 10 68 13 9 8 27 4 37 -8z m81 -21 c20 -8
21 -41 2 -60 -18 -17 -43 -18 -48 -2 -4 10 -8 9 -20 -2 -15 -16 -22 -16 -195
-11 -24 0 -43 6 -43 12 0 6 17 9 43 8 24 -2 49 1 57 6 7 5 43 8 78 7 59 -2 64
-1 59 17 -7 27 29 40 67 25z m-1565 -26 c0 -13 -3 -17 -6 -10 -4 10 -8 10 -19
1 -8 -7 -17 -9 -21 -5 -7 6 25 35 40 36 4 0 7 -10 6 -22z m651 2 c0 -5 -2 -10
-4 -10 -3 0 -8 5 -11 10 -3 6 -1 10 4 10 6 0 11 -4 11 -10z m-510 -15 c0 -11
12 -15 48 -15 32 0 42 3 33 9 -10 6 17 11 77 13 51 2 92 0 92 -4 0 -5 -4 -8
-10 -8 -5 0 -7 -7 -4 -15 5 -13 -11 -15 -115 -15 -74 0 -121 4 -121 10 0 6 -7
10 -15 10 -16 0 -20 12 -8 23 11 12 23 8 23 -8z m1470 -6 c0 -5 -4 -9 -10 -9
-5 0 -10 7 -10 16 0 8 5 12 10 9 6 -3 10 -10 10 -16z m-943 -26 c-1 -14 -8
-28 -15 -31 -15 -5 -16 13 -2 39 14 26 19 24 17 -8z m184 -23 l-7 -45 -5 40
c-4 23 -1 43 5 47 14 9 14 9 7 -42z m-751 30 c0 -5 -9 -10 -20 -10 -11 0 -20
5 -20 10 0 6 9 10 20 10 11 0 20 -4 20 -10z m1732 -21 c8 -23 7 -23 -7 -5 -14
19 -15 19 -15 -6 0 -15 8 -52 18 -85 11 -35 15 -68 11 -83 -7 -24 -7 -24 -9 5
-5 77 -17 74 -18 -5 -2 -176 -9 -210 -39 -210 -14 0 -15 20 -8 198 4 108 7
202 8 209 1 22 50 7 59 -18z m-222 -28 c0 -11 -4 -22 -9 -25 -11 -7 -20 14
-13 32 7 19 22 14 22 -7z m-970 -41 c0 -22 -4 -40 -10 -40 -5 0 -10 18 -10 40
0 22 5 40 10 40 6 0 10 -18 10 -40z m997 8 c-3 -7 -5 -2 -5 12 0 14 2 19 5 13
2 -7 2 -19 0 -25z m-816 -8 c-9 -5 -12 -50 -10 -158 2 -83 0 -154 -4 -158 -12
-13 -8 306 5 329 8 15 13 18 16 8 2 -7 -1 -17 -7 -21z m1019 15 c7 -9 8 -15 2
-15 -5 0 -12 7 -16 15 -3 8 -4 15 -2 15 2 0 9 -7 16 -15z m-1870 -55 c0 -22
-4 -40 -9 -40 -6 0 -12 -19 -14 -42 -2 -24 -4 -6 -5 40 -2 67 1 82 13 82 11 0
15 -11 15 -40z m879 -200 c5 -3 6 -23 2 -45 l-7 -40 -7 40 c-4 22 -6 90 -5
150 l2 110 3 -105 c2 -57 8 -107 12 -110z m8 168 c-3 -7 -5 -2 -5 12 0 14 2
19 5 13 2 -7 2 -19 0 -25z m743 -1 c0 -12 -5 -29 -10 -37 -7 -11 -10 -3 -10
28 0 26 4 41 10 37 6 -3 10 -16 10 -28z m56 -4 c-11 -11 -19 6 -11 24 8 17 8
17 12 0 3 -10 2 -21 -1 -24z m-988 9 c2 -7 -3 -12 -12 -12 -9 0 -16 7 -16 16
0 17 22 14 28 -4z m52 -64 c0 -38 -3 -49 -10 -38 -13 20 -13 90 0 90 6 0 10
-24 10 -52z m-823 5 c-3 -10 -5 -4 -5 12 0 17 2 24 5 18 2 -7 2 -21 0 -30z
m1943 -73 c-8 -65 -16 -71 -15 -12 0 37 7 59 21 62 0 0 -2 -22 -6 -50z m-1180
15 c0 -23 -2 -24 -20 -13 -11 7 -20 18 -20 25 0 7 9 13 20 13 15 0 20 -7 20
-25z m950 15 c0 -5 -2 -10 -4 -10 -3 0 -8 5 -11 10 -3 6 -1 10 4 10 6 0 11 -4
11 -10z m-1672 -57 c2 -8 -5 -13 -17 -13 -12 0 -21 6 -21 16 0 18 31 15 38 -3z
m738 -35 c-14 -23 -30 -7 -21 21 5 16 9 18 19 8 10 -9 10 -16 2 -29z m964 20
c0 -19 -2 -20 -10 -8 -13 19 -13 30 0 30 6 0 10 -10 10 -22z m-1580 -43 l0
-45 -40 0 c-39 0 -40 1 -40 35 0 19 -4 35 -10 35 -5 0 -10 5 -10 10 0 6 23 10
50 10 l50 0 0 -45z m567 -2 c-3 -10 -5 -2 -5 17 0 19 2 27 5 18 2 -10 2 -26 0
-35z m-696 -35 c11 -11 17 -24 14 -26 -5 -6 -45 32 -45 43 0 11 13 4 31 -17z
m1656 -8 c-6 -11 -17 -20 -23 -20 -7 0 -14 -7 -18 -15 -3 -8 -10 -15 -16 -15
-20 0 -10 19 20 37 17 9 30 23 30 31 0 7 4 10 10 7 6 -4 5 -13 -3 -25z m-949
-2 c-3 -7 -14 -17 -26 -23 -12 -5 -25 -18 -28 -27 -6 -21 -44 -24 -44 -4 0 20
28 46 50 46 10 0 22 5 25 10 9 14 27 12 23 -2z m249 6 c-3 -3 -12 -4 -19 -1
-8 3 -5 6 6 6 11 1 17 -2 13 -5z m213 -4 c0 -5 -18 -10 -40 -10 -22 0 -40 5
-40 10 0 6 18 10 40 10 22 0 40 -4 40 -10z m-250 -10 c0 -5 -2 -10 -4 -10 -3
0 -8 5 -11 10 -3 6 -1 10 4 10 6 0 11 -4 11 -10z m86 -14 c-4 -18 -2 -23 11
-22 24 2 27 -21 2 -27 -13 -4 -32 2 -51 16 l-29 21 33 17 c18 9 35 17 37 18 2
1 0 -10 -3 -23z m-876 -11 c0 -9 -9 -15 -23 -15 -13 0 -28 -5 -34 -11 -9 -9
-16 -8 -27 4 -22 22 -20 28 7 22 12 -3 34 -2 47 4 14 5 26 10 28 10 1 1 2 -6
2 -14z m-23 -41 c-3 -3 -12 -4 -19 -1 -8 3 -5 6 6 6 11 1 17 -2 13 -5z m43 -3
c0 -8 57 -26 110 -35 14 -2 -3 -2 -37 0 -35 3 -70 7 -78 10 -17 7 -21 34 -5
34 6 0 10 -4 10 -9z m275 -1 c60 -6 52 -7 -52 -6 -66 1 -119 4 -116 9 5 8 69
7 168 -3z m662 -8 c-1 -14 -7 -17 -24 -14 -37 7 -27 23 19 31 4 0 6 -7 5 -17z
m286 11 c-24 -2 -62 -2 -85 0 -24 2 -5 4 42 4 47 0 66 -2 43 -4z m-843 -33 c0
-5 -19 -9 -42 -9 -40 1 -41 2 -13 9 44 11 55 11 55 0z m720 1 c0 -6 -28 -9
-62 -9 -44 1 -55 4 -38 9 37 11 100 10 100 0z m208 2 c-10 -2 -26 -2 -35 0
-10 3 -2 5 17 5 19 0 27 -2 18 -5z m-863 -88 c44 -7 96 -17 115 -22 l35 -9
-40 -7 c-22 -4 -67 -6 -100 -5 l-60 2 70 6 70 7 -82 -1 c-44 0 -79 2 -77 6 3
4 -105 7 -238 6 -134 0 -227 -4 -208 -8 34 -8 34 -8 -7 -5 -23 1 -45 -1 -50
-6 -5 -5 -37 -12 -72 -15 -42 -5 -58 -10 -49 -16 11 -8 11 -9 0 -6 -23 6 -14
23 15 26 15 2 35 10 43 17 13 11 88 26 195 39 81 9 368 4 440 -9z m1010 0 c55
-8 114 -18 130 -23 l30 -9 -28 -8 c-18 -5 -33 -3 -40 4 -6 6 -27 10 -46 10
l-36 -1 30 -8 c25 -6 20 -8 -25 -8 -37 0 -48 2 -35 7 46 18 -343 29 -510 14
-66 -6 -74 -8 -45 -14 27 -5 21 -7 -32 -8 -38 0 -68 -4 -68 -8 0 -5 -11 -13
-25 -20 -14 -6 -25 -7 -25 -2 0 26 159 72 285 82 109 9 351 5 440 -8z m-1352
-32 c-24 -2 -62 -2 -85 0 -24 2 -5 4 42 4 47 0 66 -2 43 -4z m150 0 c-7 -2
-19 -2 -25 0 -7 3 -2 5 12 5 14 0 19 -2 13 -5z m764 -9 c-3 -3 -12 -4 -19 -1
-8 3 -5 6 6 6 11 1 17 -2 13 -5z m348 -3 c6 -11 -62 -27 -72 -17 -4 3 7 6 23
7 29 1 29 1 4 9 -24 8 -24 8 7 9 17 1 34 -3 38 -8z m-1020 -11 c4 -6 -5 -10
-19 -10 -14 0 -26 5 -26 10 0 6 9 10 19 10 11 0 23 -4 26 -10z m845 0 c-8 -5
-33 -9 -55 -8 l-40 1 45 7 c25 4 50 8 55 8 6 1 3 -3 -5 -8z m-920 -22 c231 -2
365 -7 367 -13 2 -6 -19 -10 -49 -10 -94 -1 -216 -10 -212 -16 5 -9 -307 -1
-504 13 -145 10 -185 18 -169 34 3 3 14 0 24 -7 23 -14 149 -4 159 13 4 7 9 7
13 -1 5 -7 121 -12 371 -13z m-87 15 c-24 -2 -62 -2 -85 0 -24 2 -5 4 42 4 47
0 66 -2 43 -4z m260 0 c-13 -2 -33 -2 -45 0 -13 2 -3 4 22 4 25 0 35 -2 23 -4z
m144 0 c-20 -2 -52 -2 -70 0 -17 2 0 4 38 4 39 0 53 -2 32 -4z m63 -3 c0 -5
-2 -10 -4 -10 -3 0 -8 5 -11 10 -3 6 -1 10 4 10 6 0 11 -4 11 -10z m221 -1
c13 -6 130 -10 327 -10 419 0 404 0 397 11 -4 6 8 10 29 10 20 0 36 -4 36 -9
0 -5 -10 -7 -22 -3 -14 3 -19 2 -14 -6 4 -7 16 -12 27 -12 36 0 19 -15 -18
-16 -169 -5 -240 -10 -228 -14 8 -3 -113 -5 -268 -5 -155 0 -262 3 -237 6 44
6 44 6 -15 8 -33 1 -71 4 -84 8 -18 4 -22 3 -16 -6 6 -11 3 -11 -16 -1 l-23
13 24 9 c14 5 40 8 58 6 17 -2 32 -1 32 3 0 4 -17 10 -37 12 -38 4 -38 4 -5 5
18 1 42 -3 53 -9z m382 4 c-7 -2 -21 -2 -30 0 -10 3 -4 5 12 5 17 0 24 -2 18
-5z m280 0 c-24 -2 -62 -2 -85 0 -24 2 -5 4 42 4 47 0 66 -2 43 -4z m290 -48
c4 -34 3 -42 -3 -25 -8 25 -13 87 -6 79 2 -2 6 -26 9 -54z m-132 28 c13 -16
12 -17 -3 -4 -17 13 -22 21 -14 21 2 0 10 -8 17 -17z m-1016 -3 c3 -5 1 -10
-4 -10 -6 0 -11 5 -11 10 0 6 2 10 4 10 3 0 8 -4 11 -10z m-776 -36 c9 -8 -75
-2 -94 6 -12 5 1 6 35 3 30 -3 57 -7 59 -9z m594 -1 c-7 -2 -19 -2 -25 0 -7 3
-2 5 12 5 14 0 19 -2 13 -5z m1054 1 c-3 -3 -12 -4 -19 -1 -8 3 -5 6 6 6 11 1
17 -2 13 -5z m-1909 -68 c-2 -1 -12 -8 -22 -16 -18 -14 -19 -14 -7 8 7 12 17
20 22 16 6 -3 9 -7 7 -8z m2145 -3 c-7 -2 -21 -2 -30 0 -10 3 -4 5 12 5 17 0
24 -2 18 -5z m13 -26 c4 -4 0 -7 -9 -7 -8 0 -22 -3 -31 -6 -11 -4 -16 -1 -16
10 0 12 7 16 25 13 13 -1 27 -6 31 -10z m-2201 -26 c-6 -5 -25 10 -25 20 0 5
6 4 14 -3 8 -7 12 -15 11 -17z m45 9 c0 -5 -5 -10 -11 -10 -5 0 -7 5 -4 10 3
6 8 10 11 10 2 0 4 -4 4 -10z m2183 -41 c-8 -29 -22 -22 -19 9 5 38 5 39 15
23 5 -7 6 -22 4 -32z m-2252 9 c1 -7 1 -19 0 -27 -2 -7 2 -10 8 -7 5 4 12 2
16 -4 3 -5 15 -10 25 -10 10 0 22 -5 26 -12 5 -8 -5 -9 -37 -4 -24 4 -45 8
-47 10 -8 9 -10 66 -2 66 6 0 11 -6 11 -12z m2147 -13 c28 -7 28 -19 0 -33
-30 -14 -189 -26 -168 -12 10 7 -20 9 -100 8 -98 -1 -106 -2 -55 -8 33 -4
-282 -7 -700 -7 -418 0 -750 2 -737 4 12 3 22 9 22 15 0 6 -9 8 -22 3 -56 -17
-138 -25 -217 -22 l-86 3 93 2 c50 1 92 5 92 10 0 4 -43 7 -95 7 -62 0 -98 4
-107 13 -9 9 -9 12 5 12 9 0 17 3 17 8 0 8 2022 5 2058 -3z"/>
<path d="M2107 1364 c-13 -13 -7 -24 14 -24 11 0 19 5 17 12 -5 14 -22 21 -31
12z"/>
<path d="M488 683 c6 -2 18 -2 25 0 6 3 1 5 -13 5 -14 0 -19 -2 -12 -5z"/>
<path d="M698 1413 c7 -3 16 -2 19 1 4 3 -2 6 -13 5 -11 0 -14 -3 -6 -6z"/>
<path d="M272 1337 c-13 -14 -22 -36 -22 -56 0 -40 32 -233 37 -227 3 2 -2 49
-11 104 -22 140 -21 160 9 174 14 6 25 15 25 20 0 15 -16 8 -38 -15z"/>
<path d="M362 1280 c0 -14 2 -19 5 -12 2 6 2 18 0 25 -3 6 -5 1 -5 -13z"/>
<path d="M282 1005 c0 -16 2 -22 5 -12 2 9 2 23 0 30 -3 6 -5 -1 -5 -18z"/>
<path d="M2611 594 c0 -11 3 -14 6 -6 3 7 2 16 -1 19 -3 4 -6 -2 -5 -13z"/>
<path d="M81 584 c0 -11 3 -14 6 -6 3 7 2 16 -1 19 -3 4 -6 -2 -5 -13z"/>
<path d="M190 585 c0 -8 5 -15 10 -15 6 0 10 7 10 15 0 8 -4 15 -10 15 -5 0
-10 -7 -10 -15z"/>
</g>
</svg>
