<?xml version="1.0" standalone="no"?>
<!DOCTYPE svg PUBLIC "-//W3C//DTD SVG 20010904//EN"
 "http://www.w3.org/TR/2001/REC-SVG-20010904/DTD/svg10.dtd">
<svg version="1.0" xmlns="http://www.w3.org/2000/svg"
 width="225.000000pt" height="225.000000pt" viewBox="0 0 225.000000 225.000000"
 preserveAspectRatio="xMidYMid meet">

<g transform="translate(0.000000,225.000000) scale(0.100000,-0.100000)"
fill="#000000" stroke="none">
<path d="M1925 2210 c-73 -8 -108 -26 -159 -79 -33 -33 -41 -50 -47 -97 -4
-31 -10 -59 -14 -62 -4 -4 -47 -9 -96 -12 -137 -9 -168 -41 -177 -185 -5 -83
-5 -83 -35 -89 -16 -3 -60 -6 -98 -6 -82 0 -85 -3 -91 -111 -5 -83 -25 -123
-72 -149 -25 -13 -29 -12 -64 22 -21 21 -60 43 -91 53 l-54 18 -18 -24 c-10
-13 -27 -55 -37 -94 -22 -80 1 -73 -189 -60 -132 10 -201 -3 -323 -62 -317
-152 -438 -538 -274 -872 160 -325 569 -463 892 -301 245 124 356 323 338 605
-4 60 -8 123 -9 140 -2 29 0 30 49 36 133 17 171 88 98 183 -31 41 -34 49 -22
64 26 34 436 460 584 607 111 111 157 164 177 205 59 120 57 234 -3 265 -31
16 -152 18 -265 5z m73 -68 c-29 -33 -235 -246 -457 -475 -223 -229 -408 -423
-413 -430 -17 -31 -68 -179 -60 -175 4 1 147 149 318 328 652 685 769 805 784
801 66 -13 62 -160 -7 -266 -15 -22 -178 -195 -364 -385 -185 -190 -353 -365
-373 -388 l-36 -44 40 -46 c36 -40 41 -51 38 -86 -3 -38 -6 -42 -48 -58 -25
-9 -67 -20 -93 -23 l-49 -6 9 -62 c4 -34 8 -118 8 -187 0 -104 -4 -136 -23
-192 -45 -131 -127 -228 -264 -311 -103 -62 -183 -82 -323 -81 -104 0 -131 4
-200 28 -116 40 -180 80 -266 165 -125 125 -183 270 -183 456 0 184 53 316
173 435 85 85 175 138 281 165 65 17 188 17 326 -1 l50 -6 23 85 c12 47 28 91
36 97 20 16 114 -25 153 -68 l33 -36 55 55 55 55 7 85 7 84 98 6 c54 4 100 9
102 11 3 3 9 45 14 94 5 49 15 101 22 116 17 39 65 58 147 58 91 0 113 16 120
88 4 46 10 56 57 101 34 32 64 51 86 55 72 12 85 13 127 15 l44 1 -54 -58z
m107 26 c-50 -59 -998 -1049 -1001 -1045 -2 2 6 29 19 60 20 50 73 109 487
536 396 410 469 480 493 481 l29 0 -27 -32z"/>
<path d="M468 588 c-52 -14 -98 -68 -98 -114 0 -94 96 -152 180 -109 82 43 79
186 -5 221 -19 8 -36 14 -37 13 -2 -1 -20 -6 -40 -11z m100 -44 c34 -39 31
-107 -7 -145 -63 -63 -171 -20 -171 68 0 46 23 77 70 97 43 19 78 13 108 -20z"/>
</g>
</svg>
